<!-- Generator: Adobe Illustrator 21.0.0, SVG Export Plug-In  -->
<svg version="1.1"
	 xmlns="http://www.w3.org/2000/svg" xmlns:xlink="http://www.w3.org/1999/xlink" xmlns:a="http://ns.adobe.com/AdobeSVGViewerExtensions/3.0/"
	 x="0px" y="0px" width="253.362px" height="121.538px" viewBox="0 0 253.362 121.538"
	 style="enable-background:new 0 0 253.362 121.538;" xml:space="preserve">
<style type="text/css">
	<!-- .st0{fill:#4B9035;}
	.st1{fill:#0076C1;}
	.st2{fill:#FF3C31;}
	.st3{fill:#FFBA00;}
	.st4{fill:#00ACE5;}
	.st5{fill:#5A3944;}
	.st5{fill:#3f2128;}
	.st6{fill:#0069B8;}
	.st7{fill:#E2180E;}
	.st8{fill:#BB1964;}
	.st9{fill:#006932;}
	.st10{fill:#00B770;}
	.st11{fill:#FFDB00;}
	.st12{fill:#2D161F;}
	.st13{fill:#BA2027;}
	.st14{fill:#006532;}
	.st15{fill:#007540;} -->
	.st0{fill: #f96027;}
	.st1{fill: #0076C1;}
	.st2{fill: #00ACE5;}
	.st3{fill: #FFBA00;}
	.st4{fill: #b7352d;}
	.st5{fill: #0069b8;}
	.st6{fill: #952b2b;}
	.st7{fill: #00a4b8;}
	.st8{fill: #00B770;}
	.st9{fill: #006932;}
	.st10{fill: #ff3c31;}
	.st11{fill: #FFDB00;}
	.st12{fill: #207445;}
	.st13{fill: #749331;}
	<!-- .st14{fill: #4a6225;} -->
	.st14{fill: #1d501f;}
	.st15{fill: #ff4500a1;}
</style>
<defs>
</defs>
<g>
	<path class="st0" d="M126.832,34.23c0,0,17.203,21.694,17.719,26.987c0.515,5.293-11.888,28.645-18.021,28.077
		c0,0-18.264-20.422-17.719-28.077C108.811,61.217,119.911,37.115,126.832,34.23z"/>
	<g>
		<path class="st1" d="M0,62.765C0,62.765,1.998,0,64.809,0v30.667c0,0-34.142-0.428-34.142,32.098H0z"/>
		<path class="st2" d="M30.667,62.765c0,0,1.585,28.063,30.869,28.063v30.667c0,0-54.925,3.742-61.536-58.73H30.667z"/>
		<path class="st3" d="M61.536,90.828c0,0,27.921,5.553,47.275-29.611l17.719,28.077c0,0-22.04,32.201-64.994,32.201V90.828z"/>
		<path class="st4" d="M64.809,30.667c0,0,21.922-3.797,44.002,30.55c0,0,10.904-18.196,17.719-26.987
			c0,0-22.105-34.23-61.721-34.23V30.667z"/>
		<circle class="st5" cx="15.333" cy="62.765" r="15.333"/>
		<circle class="st6" cx="64.809" cy="15.333" r="15.333"/>
		<circle class="st7" cx="61.536" cy="106.162" r="15.333"/>
	</g>
	<path class="st8" d="M253.362,62.765c0,0-1.998-62.765-64.809-62.765v30.667c0,0,34.142-0.428,34.142,32.098H253.362z"/>
	<path class="st9" d="M222.695,62.765c0,0-1.585,28.063-30.869,28.063v30.667c0,0,54.925,3.742,61.536-58.73H222.695z"/>
	<path class="st10" d="M191.826,90.828c0,0-27.921,5.553-47.275-29.611l-17.719,28.077c0,0,22.04,32.201,64.994,32.201V90.828z"/>
	<path class="st11" d="M188.553,30.667c0,0-21.922-3.797-44.002,30.55c0,0-10.904-18.196-17.719-26.987
		c0,0,22.105-34.23,61.721-34.23V30.667z"/>
	<circle class="st12" cx="238.029" cy="62.765" r="15.333"/>
	<circle class="st13" cx="188.553" cy="15.333" r="15.333"/>
	<circle class="st14" cx="191.826" cy="106.162" r="15.333"/>
	<circle class="st15" cx="126.67" cy="61.379" r="15.219"/>
</g>
</svg>